<svg width="104" height="56" viewBox="0 0 104 56" fill="none" xmlns="http://www.w3.org/2000/svg">
<g id="icon">
<g id="eyes">
<g id="Vector 3" filter="url(#filter0_di)">
<path d="M18 28L15 15C20 22.5 38.5 30 41.5 32C43.9 33.6 46.8333 42.6667 48 47L18 28Z" fill="white"/>
</g>
<g id="Vector 4" filter="url(#filter1_di)">
<path d="M84.1818 28L87 15C82.303 22.5 64.9242 30 62.1061 32C59.8515 33.6 57.096 42.6667 56 47L84.1818 28Z" fill="white"/>
</g>
</g>
<g id="eyebrow" filter="url(#filter2_d)">
<path d="M47.6768 26.6842C41.1065 26.207 19.8213 16.8626 11 10.5C18 22.5 33.5 30 42.2015 32.9474L51.6312 41L62.8859 31.7544C79.9202 25.5509 90.0596 12.6667 93 7C80.1027 18.214 63.0887 24.7953 56.1939 26.6842V31.7544L51.6312 35.3333L47.6768 31.7544V26.6842Z" fill="#4A747A"/>
<path d="M47.6768 26.6842C41.1065 26.207 19.8213 16.8626 11 10.5C18 22.5 33.5 30 42.2015 32.9474L51.6312 41L62.8859 31.7544C79.9202 25.5509 90.0596 12.6667 93 7C80.1027 18.214 63.0887 24.7953 56.1939 26.6842V31.7544L51.6312 35.3333L47.6768 31.7544V26.6842Z" stroke="#981937"/>
</g>
<path id="scar" d="M36.3362 50.9699C23.9892 36.3704 28.0028 17.7273 31.7055 10C27.4215 32.4909 32.3775 45.7683 36.3362 50.9699C36.772 51.4852 37.2282 51.9954 37.7055 52.5C37.2755 52.1058 36.8131 51.5964 36.3362 50.9699Z" fill="#393838"/>
</g>
<defs>
<filter id="filter0_di" x="11" y="15" width="41" height="40" filterUnits="userSpaceOnUse" color-interpolation-filters="sRGB">
<feFlood flood-opacity="0" result="BackgroundImageFix"/>
<feColorMatrix in="SourceAlpha" type="matrix" values="0 0 0 0 0 0 0 0 0 0 0 0 0 0 0 0 0 0 127 0"/>
<feOffset dy="4"/>
<feGaussianBlur stdDeviation="2"/>
<feColorMatrix type="matrix" values="0 0 0 0 0 0 0 0 0 0 0 0 0 0 0 0 0 0 0.79 0"/>
<feBlend mode="normal" in2="BackgroundImageFix" result="effect1_dropShadow"/>
<feBlend mode="normal" in="SourceGraphic" in2="effect1_dropShadow" result="shape"/>
<feColorMatrix in="SourceAlpha" type="matrix" values="0 0 0 0 0 0 0 0 0 0 0 0 0 0 0 0 0 0 127 0" result="hardAlpha"/>
<feOffset dy="4"/>
<feGaussianBlur stdDeviation="2"/>
<feComposite in2="hardAlpha" operator="arithmetic" k2="-1" k3="1"/>
<feColorMatrix type="matrix" values="0 0 0 0 0 0 0 0 0 0 0 0 0 0 0 0 0 0 0.25 0"/>
<feBlend mode="normal" in2="shape" result="effect2_innerShadow"/>
</filter>
<filter id="filter1_di" x="52" y="15" width="39" height="40" filterUnits="userSpaceOnUse" color-interpolation-filters="sRGB">
<feFlood flood-opacity="0" result="BackgroundImageFix"/>
<feColorMatrix in="SourceAlpha" type="matrix" values="0 0 0 0 0 0 0 0 0 0 0 0 0 0 0 0 0 0 127 0"/>
<feOffset dy="4"/>
<feGaussianBlur stdDeviation="2"/>
<feColorMatrix type="matrix" values="0 0 0 0 0 0 0 0 0 0 0 0 0 0 0 0 0 0 0.7 0"/>
<feBlend mode="normal" in2="BackgroundImageFix" result="effect1_dropShadow"/>
<feBlend mode="normal" in="SourceGraphic" in2="effect1_dropShadow" result="shape"/>
<feColorMatrix in="SourceAlpha" type="matrix" values="0 0 0 0 0 0 0 0 0 0 0 0 0 0 0 0 0 0 127 0" result="hardAlpha"/>
<feOffset dy="4"/>
<feGaussianBlur stdDeviation="2"/>
<feComposite in2="hardAlpha" operator="arithmetic" k2="-1" k3="1"/>
<feColorMatrix type="matrix" values="0 0 0 0 0 0 0 0 0 0 0 0 0 0 0 0 0 0 0.25 0"/>
<feBlend mode="normal" in2="shape" result="effect2_innerShadow"/>
</filter>
<filter id="filter2_d" x="0.568111" y="0.622681" width="102.876" height="55.0295" filterUnits="userSpaceOnUse" color-interpolation-filters="sRGB">
<feFlood flood-opacity="0" result="BackgroundImageFix"/>
<feColorMatrix in="SourceAlpha" type="matrix" values="0 0 0 0 0 0 0 0 0 0 0 0 0 0 0 0 0 0 127 0"/>
<feOffset dy="4"/>
<feGaussianBlur stdDeviation="5"/>
<feColorMatrix type="matrix" values="0 0 0 0 0 0 0 0 0 0 0 0 0 0 0 0 0 0 0.25 0"/>
<feBlend mode="normal" in2="BackgroundImageFix" result="effect1_dropShadow"/>
<feBlend mode="normal" in="SourceGraphic" in2="effect1_dropShadow" result="shape"/>
</filter>
</defs>
</svg>
