<svg width="272" height="70" viewBox="0 0 272 70" fill="none" xmlns="http://www.w3.org/2000/svg">
<g id="kuraSuText">
<path d="M0.84375 68V2.375H7.21875V68H0.84375ZM11.25 36.0312L33.8438 2.375H40.875L18.375 36.0312L41.25 68H34.2188L11.25 36.0312ZM46.5 54.7812V18.3125H52.7812V54.0312C52.7812 56.4062 54 58.5 56.4375 60.3125C58.3125 61.625 60.3438 62.2812 62.5312 62.2812V68.4688C56.5312 68.4688 51.9688 66.1562 48.8438 61.5312C47.2812 59.1562 46.5 56.9062 46.5 54.7812ZM66.5625 68.4688V62.2812C70.25 62.2812 73.0625 60.8125 75 57.875C75.8125 56.5625 76.2188 55.2812 76.2188 54.0312V18.3125H82.5V54.7812C82.5 57.5938 81.2188 60.4062 78.6562 63.2188C75.4062 66.6562 71.375 68.4062 66.5625 68.4688ZM90 68V18.2188H96.2812V25.625C97.5938 22.9375 99.7812 20.875 102.844 19.4375C104.719 18.5625 106.656 18.125 108.656 18.125H109.688L108.188 24.125C104.875 24.1875 101.938 26.0625 99.375 29.75C97.3125 32.8125 96.2812 35.9688 96.2812 39.2188V68H90ZM114.656 56.375C114.656 59.75 116.312 62.625 119.625 65C122.438 66.9375 125.75 67.9062 129.562 67.9062V62.0938C124.5 62.0938 121.5 60.375 120.562 56.9375C120.375 56.25 120.281 55.5625 120.281 54.875V51.875C120.344 50.4375 120.719 49.375 121.406 48.6875C122.344 47.75 126.062 46.5312 132.562 45.0312C137.812 43.7812 141.312 42.7188 143.062 41.8438V53.6562C143.062 58.8438 140.469 61.625 135.281 62C134.844 62.0625 134.438 62.0938 134.062 62.0938V67.9062C138.5 67.9062 141.969 66.8438 144.469 64.7188C144.531 64.6562 144.594 64.5938 144.656 64.5312C146.406 66.7812 148.719 67.9062 151.594 67.9062V62C150.031 61.875 149.219 60.8438 149.156 58.9062V32.6562C149.156 28.4688 147.594 24.9062 144.469 21.9688C141.656 19.3438 138.188 18.0312 134.062 18.0312V23.6562C137.062 23.6562 139.469 24.9062 141.281 27.4062C142.406 28.9688 142.969 30.75 142.969 32.75V34.4375C143.031 36 139.25 37.75 131.625 39.6875C124.5 41.5 120.406 42.6875 119.344 43.25C116.281 45 114.719 47.9062 114.656 51.9688V56.375ZM115.312 30.5L120.844 32.6562C120.844 29.0938 122.375 26.5 125.438 24.875C126.75 24.1875 128.156 23.8438 129.656 23.8438V18.0312C125.406 18.0312 121.781 19.5312 118.781 22.5312C116.406 24.9062 115.25 27.5625 115.312 30.5ZM187.969 53.1875L193.781 51.125C194.094 53.0625 194.719 54.75 195.656 56.1875C196.594 57.625 197.594 58.7188 198.656 59.4688C199.781 60.2188 200.844 60.8438 201.844 61.3438C202.906 61.7812 203.781 62.0625 204.469 62.1875L205.5 62.2812V68.2812C199.875 68.2812 195.188 65.9062 191.438 61.1562C189.188 58.2812 188.031 55.625 187.969 53.1875ZM188.719 20C188.719 13.375 191.625 8.34375 197.438 4.90625C200.312 3.21875 203 2.375 205.5 2.375V8.375C203.25 8.5 201.031 9.5625 198.844 11.5625C196.344 13.9375 195.062 16.8438 195 20.2812C195 24.5312 198.062 27.6562 204.188 29.6562C205.75 30.1562 208.094 30.75 211.219 31.4375C214.156 32.125 216.188 32.6562 217.312 33.0312C222.875 35.0312 226.469 37.9688 228.094 41.8438C228.906 43.8438 229.312 46.1562 229.312 48.7812C229.312 54.2188 227.219 58.9375 223.031 62.9375C219.219 66.5 214.875 68.2812 210 68.2812V62.2812C212.625 62.2188 215.344 60.9688 218.156 58.5312C221.281 55.7188 222.875 52.4062 222.938 48.5938C222.938 43.7188 219.625 40.2812 213 38.2812C211.5 37.8438 209.25 37.3125 206.25 36.6875C203.188 36.0625 201.188 35.5625 200.25 35.1875C195.062 33.125 191.688 30.4688 190.125 27.2188C189.188 25.1562 188.719 22.75 188.719 20ZM210 8.375V2.375C215.5 2.375 220.094 4.875 223.781 9.875C225.469 12.1875 226.438 14.2812 226.688 16.1562L220.688 18.125C220.312 16.4375 219.656 14.9375 218.719 13.625C217.844 12.3125 216.906 11.3438 215.906 10.7188C214.969 10.0938 214.031 9.59375 213.094 9.21875C212.219 8.78125 211.5 8.53125 210.938 8.46875L210 8.375ZM235.406 54.7812V18.3125H241.688V54.0312C241.688 56.4062 242.906 58.5 245.344 60.3125C247.219 61.625 249.25 62.2812 251.438 62.2812V68.4688C245.438 68.4688 240.875 66.1562 237.75 61.5312C236.188 59.1562 235.406 56.9062 235.406 54.7812ZM255.469 68.4688V62.2812C259.156 62.2812 261.969 60.8125 263.906 57.875C264.719 56.5625 265.125 55.2812 265.125 54.0312V18.3125H271.406V54.7812C271.406 57.5938 270.125 60.4062 267.562 63.2188C264.312 66.6562 260.281 68.4062 255.469 68.4688Z" fill="black"/>
<path d="M159 69.5L175.406 0.21875H181.406L165.094 69.5H159Z" fill="#FE005B"/>
</g>
</svg>
