<svg width="211" height="115" viewBox="0 0 211 115" fill="none" xmlns="http://www.w3.org/2000/svg">
<g id="rocket-kurasu">
<g id="icon">
<g id="eyes">
<g id="Vector 3" filter="url(#filter0_di)">
<path d="M65.0793 83.8439L62.5234 70.7493C67.2653 78.4151 85.4993 86.5404 88.4295 88.6413C90.7737 90.3221 93.3967 99.4833 94.4152 103.854L65.0793 83.8439Z" fill="white"/>
</g>
<g id="Vector 4" filter="url(#filter1_di)">
<path d="M131.223 86.0963L134.482 73.1997C129.532 80.5355 111.908 87.4397 109.024 89.3426C106.716 90.865 103.653 99.8326 102.411 104.126L131.223 86.0963Z" fill="white"/>
</g>
</g>
<g id="eyebrow" filter="url(#filter2_d)">
<path d="M94.7836 83.5388C88.2334 82.8383 67.2785 72.7749 58.6789 66.1158C65.2664 78.3471 80.5022 86.3702 89.0984 89.612L98.2485 97.9809L109.811 89.1237C127.047 83.5035 137.619 70.9719 140.751 65.4085C127.479 76.1771 110.251 82.1756 103.296 83.8287L103.123 88.8959L98.4414 92.3175L94.6111 88.6061L94.7836 83.5388Z" fill="#4A747A"/>
<path d="M94.7836 83.5388C88.2334 82.8383 67.2785 72.7749 58.6789 66.1158C65.2664 78.3471 80.5022 86.3702 89.0984 89.612L98.2485 97.9809L109.811 89.1237C127.047 83.5035 137.619 70.9719 140.751 65.4085C127.479 76.1771 110.251 82.1756 103.296 83.8287L103.123 88.8959L98.4414 92.3175L94.6111 88.6061L94.7836 83.5388Z" stroke="#981937"/>
</g>
<path id="scar" d="M82.6231 107.425C70.7801 92.4132 75.4259 73.9175 79.3894 66.3208C74.3425 88.6528 78.8437 102.091 82.6231 107.425C83.0411 107.954 83.4797 108.48 83.9395 109C83.5232 108.592 83.0784 108.067 82.6231 107.425Z" fill="#393838"/>
</g>
<g id="rocket-text">
<path d="M9.09375 62H18.0312V46.9375H18.0625V44.0625H27.0625V62H36.0312V46.9375H36.0625V44.0312L32.4688 39.4688L36.0625 34.9688V25.375L30 17.1562H3.6875L9.09375 24.3438V62ZM27.0625 35.0938H18.0625V26.125H27.0625V35.0938ZM47.3275 62H61.4525L67.89 53.7812V25.375L61.8275 17.1562H35.515L40.9212 24.3438L40.89 53.7812L47.3275 62ZM58.89 53.0312H49.89V26.125H58.89V53.0312ZM72.6862 62H93.03L99.405 53.8125V49H90.4987V53.0625H81.5925V26.1875H90.4987V30.25H99.405V25.4375L93.405 17.25H67.3425L72.6862 24.4062V62ZM130.889 25.4375V35L127.326 39.5L130.889 44.0312V62H122.014V44.0625H113.107V61.9375H104.201V24.4062L98.8575 17.25H113.107V33.3125V35.125H122.014V17.25H124.889L130.889 25.4375ZM162.435 30.25H153.529V26.1875H144.622V35.1562H153.654V44.0938H144.622V53.0625H153.529V49H162.435V53.8125L156.06 62H135.716V24.4062L130.372 17.25H156.435L162.435 25.4375V30.25ZM175.919 62H184.887V46.8125V44.875V26.125H186.981H197.294L190.575 17.1562H161.887L168.387 26.125H175.919V62Z" fill="#45C989"/>
<path d="M9.09375 62H7.59375V63.5H9.09375V62ZM18.0312 62V63.5H19.5312V62H18.0312ZM18.0312 46.9375V45.4375H16.5312V46.9375H18.0312ZM18.0625 46.9375V48.4375H19.5625V46.9375H18.0625ZM18.0625 44.0625V42.5625H16.5625V44.0625H18.0625ZM27.0625 44.0625H28.5625V42.5625H27.0625V44.0625ZM27.0625 62H25.5625V63.5H27.0625V62ZM36.0312 62V63.5H37.5312V62H36.0312ZM36.0312 46.9375V45.4375H34.5312V46.9375H36.0312ZM36.0625 46.9375V48.4375H37.5625V46.9375H36.0625ZM36.0625 44.0312H37.5625V43.5114L37.2409 43.1031L36.0625 44.0312ZM32.4688 39.4688L31.2967 38.5327L30.5542 39.4623L31.2904 40.3969L32.4688 39.4688ZM36.0625 34.9688L37.2346 35.9048L37.5625 35.4942V34.9688H36.0625ZM36.0625 25.375H37.5625V24.8816L37.2696 24.4846L36.0625 25.375ZM30 17.1562L31.2071 16.2658L30.7575 15.6562H30V17.1562ZM3.6875 17.1562V15.6562H0.682281L2.48875 18.0579L3.6875 17.1562ZM9.09375 24.3438H10.5938V23.8426L10.2925 23.4421L9.09375 24.3438ZM27.0625 35.0938V36.5938H28.5625V35.0938H27.0625ZM18.0625 35.0938H16.5625V36.5938H18.0625V35.0938ZM18.0625 26.125V24.625H16.5625V26.125H18.0625ZM27.0625 26.125H28.5625V24.625H27.0625V26.125ZM9.09375 63.5H18.0312V60.5H9.09375V63.5ZM19.5312 62V46.9375H16.5312V62H19.5312ZM18.0312 48.4375H18.0625V45.4375H18.0312V48.4375ZM19.5625 46.9375V44.0625H16.5625V46.9375H19.5625ZM18.0625 45.5625H27.0625V42.5625H18.0625V45.5625ZM25.5625 44.0625V62H28.5625V44.0625H25.5625ZM27.0625 63.5H36.0312V60.5H27.0625V63.5ZM37.5312 62V46.9375H34.5312V62H37.5312ZM36.0312 48.4375H36.0625V45.4375H36.0312V48.4375ZM37.5625 46.9375V44.0312H34.5625V46.9375H37.5625ZM37.2409 43.1031L33.6471 38.5406L31.2904 40.3969L34.8841 44.9594L37.2409 43.1031ZM33.6408 40.4048L37.2346 35.9048L34.8904 34.0327L31.2967 38.5327L33.6408 40.4048ZM37.5625 34.9688V25.375H34.5625V34.9688H37.5625ZM37.2696 24.4846L31.2071 16.2658L28.7929 18.0467L34.8554 26.2654L37.2696 24.4846ZM30 15.6562H3.6875V18.6562H30V15.6562ZM2.48875 18.0579L7.895 25.2454L10.2925 23.4421L4.88625 16.2546L2.48875 18.0579ZM7.59375 24.3438V62H10.5938V24.3438H7.59375ZM27.0625 33.5938H18.0625V36.5938H27.0625V33.5938ZM19.5625 35.0938V26.125H16.5625V35.0938H19.5625ZM18.0625 27.625H27.0625V24.625H18.0625V27.625ZM25.5625 26.125V35.0938H28.5625V26.125H25.5625ZM47.3275 62L46.1466 62.9249L46.597 63.5H47.3275V62ZM61.4525 62V63.5H62.183L62.6334 62.9249L61.4525 62ZM67.89 53.7812L69.0709 54.7062L69.39 54.2988V53.7812H67.89ZM67.89 25.375H69.39V24.8816L69.0971 24.4846L67.89 25.375ZM61.8275 17.1562L63.0346 16.2658L62.585 15.6562H61.8275V17.1562ZM35.515 17.1562V15.6562H32.5098L34.3163 18.0579L35.515 17.1562ZM40.9212 24.3438L42.4212 24.3453L42.4218 23.8433L42.12 23.4421L40.9212 24.3438ZM40.89 53.7812L39.39 53.7797L39.3894 54.2981L39.7091 54.7062L40.89 53.7812ZM58.89 53.0312V54.5312H60.39V53.0312H58.89ZM49.89 53.0312H48.39V54.5312H49.89V53.0312ZM49.89 26.125V24.625H48.39V26.125H49.89ZM58.89 26.125H60.39V24.625H58.89V26.125ZM47.3275 63.5H61.4525V60.5H47.3275V63.5ZM62.6334 62.9249L69.0709 54.7062L66.7091 52.8563L60.2716 61.0751L62.6334 62.9249ZM69.39 53.7812V25.375H66.39V53.7812H69.39ZM69.0971 24.4846L63.0346 16.2658L60.6204 18.0467L66.6829 26.2654L69.0971 24.4846ZM61.8275 15.6562H35.515V18.6562H61.8275V15.6562ZM34.3163 18.0579L39.7225 25.2454L42.12 23.4421L36.7137 16.2546L34.3163 18.0579ZM39.4213 24.3422L39.39 53.7797L42.39 53.7828L42.4212 24.3453L39.4213 24.3422ZM39.7091 54.7062L46.1466 62.9249L48.5084 61.0751L42.0709 52.8563L39.7091 54.7062ZM58.89 51.5312H49.89V54.5312H58.89V51.5312ZM51.39 53.0312V26.125H48.39V53.0312H51.39ZM49.89 27.625H58.89V24.625H49.89V27.625ZM57.39 26.125V53.0312H60.39V26.125H57.39ZM72.6862 62H71.1862V63.5H72.6862V62ZM93.03 62V63.5H93.7631L94.2135 62.9215L93.03 62ZM99.405 53.8125L100.589 54.734L100.905 54.3276V53.8125H99.405ZM99.405 49H100.905V47.5H99.405V49ZM90.4987 49V47.5H88.9987V49H90.4987ZM90.4987 53.0625V54.5625H91.9987V53.0625H90.4987ZM81.5925 53.0625H80.0925V54.5625H81.5925V53.0625ZM81.5925 26.1875V24.6875H80.0925V26.1875H81.5925ZM90.4987 26.1875H91.9987V24.6875H90.4987V26.1875ZM90.4987 30.25H88.9987V31.75H90.4987V30.25ZM99.405 30.25V31.75H100.905V30.25H99.405ZM99.405 25.4375H100.905V24.9467L100.615 24.5509L99.405 25.4375ZM93.405 17.25L94.6149 16.3634L94.1654 15.75H93.405V17.25ZM67.3425 17.25V15.75H64.3504L66.1406 18.1475L67.3425 17.25ZM72.6862 24.4062H74.1862V23.908L73.8881 23.5088L72.6862 24.4062ZM72.6862 63.5H93.03V60.5H72.6862V63.5ZM94.2135 62.9215L100.589 54.734L98.2215 52.891L91.8465 61.0785L94.2135 62.9215ZM100.905 53.8125V49H97.905V53.8125H100.905ZM99.405 47.5H90.4987V50.5H99.405V47.5ZM88.9987 49V53.0625H91.9987V49H88.9987ZM90.4987 51.5625H81.5925V54.5625H90.4987V51.5625ZM83.0925 53.0625V26.1875H80.0925V53.0625H83.0925ZM81.5925 27.6875H90.4987V24.6875H81.5925V27.6875ZM88.9987 26.1875V30.25H91.9987V26.1875H88.9987ZM90.4987 31.75H99.405V28.75H90.4987V31.75ZM100.905 30.25V25.4375H97.905V30.25H100.905ZM100.615 24.5509L94.6149 16.3634L92.1951 18.1366L98.1951 26.3241L100.615 24.5509ZM93.405 15.75H67.3425V18.75H93.405V15.75ZM66.1406 18.1475L71.4844 25.3037L73.8881 23.5088L68.5444 16.3525L66.1406 18.1475ZM71.1862 24.4062V62H74.1862V24.4062H71.1862ZM130.889 25.4375H132.389V24.9467L132.099 24.5509L130.889 25.4375ZM130.889 35L132.065 35.9311L132.389 35.5219V35H130.889ZM127.326 39.5L126.15 38.5689L125.416 39.4968L126.147 40.4271L127.326 39.5ZM130.889 44.0312H132.389V43.5122L132.068 43.1042L130.889 44.0312ZM130.889 62V63.5H132.389V62H130.889ZM122.014 62H120.514V63.5H122.014V62ZM122.014 44.0625H123.514V42.5625H122.014V44.0625ZM113.107 44.0625V42.5625H111.607V44.0625H113.107ZM113.107 61.9375V63.4375H114.607V61.9375H113.107ZM104.201 61.9375H102.701V63.4375H104.201V61.9375ZM104.201 24.4062H105.701V23.908L105.403 23.5088L104.201 24.4062ZM98.8575 17.25V15.75H95.8654L97.6556 18.1475L98.8575 17.25ZM113.107 17.25H114.607V15.75H113.107V17.25ZM113.107 35.125H111.607V36.625H113.107V35.125ZM122.014 35.125V36.625H123.514V35.125H122.014ZM122.014 17.25V15.75H120.514V17.25H122.014ZM124.889 17.25L126.099 16.3634L125.649 15.75H124.889V17.25ZM129.389 25.4375V35H132.389V25.4375H129.389ZM129.713 34.0689L126.15 38.5689L128.502 40.4311L132.065 35.9311L129.713 34.0689ZM126.147 40.4271L129.71 44.9583L132.068 43.1042L128.505 38.5729L126.147 40.4271ZM129.389 44.0312V62H132.389V44.0312H129.389ZM130.889 60.5H122.014V63.5H130.889V60.5ZM123.514 62V44.0625H120.514V62H123.514ZM122.014 42.5625H113.107V45.5625H122.014V42.5625ZM111.607 44.0625V61.9375H114.607V44.0625H111.607ZM113.107 60.4375H104.201V63.4375H113.107V60.4375ZM105.701 61.9375V24.4062H102.701V61.9375H105.701ZM105.403 23.5088L100.059 16.3525L97.6556 18.1475L102.999 25.3037L105.403 23.5088ZM98.8575 18.75H113.107V15.75H98.8575V18.75ZM111.607 17.25V33.3125H114.607V17.25H111.607ZM111.607 33.3125V35.125H114.607V33.3125H111.607ZM113.107 36.625H122.014V33.625H113.107V36.625ZM123.514 35.125V17.25H120.514V35.125H123.514ZM122.014 18.75H124.889V15.75H122.014V18.75ZM123.679 18.1366L129.679 26.3241L132.099 24.5509L126.099 16.3634L123.679 18.1366ZM162.435 30.25V31.75H163.935V30.25H162.435ZM153.529 30.25H152.029V31.75H153.529V30.25ZM153.529 26.1875H155.029V24.6875H153.529V26.1875ZM144.622 26.1875V24.6875H143.122V26.1875H144.622ZM144.622 35.1562H143.122V36.6562H144.622V35.1562ZM153.654 35.1562H155.154V33.6562H153.654V35.1562ZM153.654 44.0938V45.5938H155.154V44.0938H153.654ZM144.622 44.0938V42.5938H143.122V44.0938H144.622ZM144.622 53.0625H143.122V54.5625H144.622V53.0625ZM153.529 53.0625V54.5625H155.029V53.0625H153.529ZM153.529 49V47.5H152.029V49H153.529ZM162.435 49H163.935V47.5H162.435V49ZM162.435 53.8125L163.619 54.734L163.935 54.3276V53.8125H162.435ZM156.06 62V63.5H156.793L157.244 62.9215L156.06 62ZM135.716 62H134.216V63.5H135.716V62ZM135.716 24.4062H137.216V23.908L136.918 23.5088L135.716 24.4062ZM130.372 17.25V15.75H127.38L129.171 18.1475L130.372 17.25ZM156.435 17.25L157.645 16.3634L157.195 15.75H156.435V17.25ZM162.435 25.4375H163.935V24.9467L163.645 24.5509L162.435 25.4375ZM162.435 28.75H153.529V31.75H162.435V28.75ZM155.029 30.25V26.1875H152.029V30.25H155.029ZM153.529 24.6875H144.622V27.6875H153.529V24.6875ZM143.122 26.1875V35.1562H146.122V26.1875H143.122ZM144.622 36.6562H153.654V33.6562H144.622V36.6562ZM152.154 35.1562V44.0938H155.154V35.1562H152.154ZM153.654 42.5938H144.622V45.5938H153.654V42.5938ZM143.122 44.0938V53.0625H146.122V44.0938H143.122ZM144.622 54.5625H153.529V51.5625H144.622V54.5625ZM155.029 53.0625V49H152.029V53.0625H155.029ZM153.529 50.5H162.435V47.5H153.529V50.5ZM160.935 49V53.8125H163.935V49H160.935ZM161.251 52.891L154.876 61.0785L157.244 62.9215L163.619 54.734L161.251 52.891ZM156.06 60.5H135.716V63.5H156.06V60.5ZM137.216 62V24.4062H134.216V62H137.216ZM136.918 23.5088L131.574 16.3525L129.171 18.1475L134.514 25.3037L136.918 23.5088ZM130.372 18.75H156.435V15.75H130.372V18.75ZM155.225 18.1366L161.225 26.3241L163.645 24.5509L157.645 16.3634L155.225 18.1366ZM160.935 25.4375V30.25H163.935V25.4375H160.935ZM175.919 62H174.419V63.5H175.919V62ZM184.887 62V63.5H186.387V62H184.887ZM184.887 26.125V24.625H183.387V26.125H184.887ZM197.294 26.125V27.625H200.292L198.494 25.2257L197.294 26.125ZM190.575 17.1562L191.775 16.2569L191.326 15.6562H190.575V17.1562ZM161.887 17.1562V15.6562H158.948L160.673 18.0365L161.887 17.1562ZM168.387 26.125L167.173 27.0052L167.622 27.625H168.387V26.125ZM175.919 26.125H177.419V24.625H175.919V26.125ZM175.919 63.5H184.887V60.5H175.919V63.5ZM186.387 62V46.8125H183.387V62H186.387ZM186.387 46.8125V44.875H183.387V46.8125H186.387ZM186.387 44.875V26.125H183.387V44.875H186.387ZM184.887 27.625H186.981V24.625H184.887V27.625ZM186.981 27.625H197.294V24.625H186.981V27.625ZM198.494 25.2257L191.775 16.2569L189.374 18.0556L196.093 27.0243L198.494 25.2257ZM190.575 15.6562H161.887V18.6562H190.575V15.6562ZM160.673 18.0365L167.173 27.0052L169.602 25.2448L163.102 16.276L160.673 18.0365ZM168.387 27.625H175.919V24.625H168.387V27.625ZM174.419 26.125V62H177.419V26.125H174.419Z" fill="#FF5C00"/>
</g>
<path id="kurasu-heading" d="M82.5923 4.71582V6.35938L81.98 7.13281L82.5923 7.91162V11H81.0669V7.91699H79.5361V10.9893H78.0054V4.53857L77.0869 3.30859H79.5361V6.06934V6.38086H81.0669V3.30859H81.561L82.5923 4.71582ZM85.5238 11H87.9516L89.058 9.5874V4.70508L88.016 3.29248H87.5111V9.4585H85.9643V6.68701V3.29248H83.4936L84.4228 4.52783L84.4174 9.5874L85.5238 11ZM90.8831 11H92.4192V8.41113H92.4246V7.91699H93.9715V11H95.513V8.41113H95.5184V7.91162L94.9007 7.12744L95.5184 6.354V4.70508L94.4764 3.29248H89.9539L90.8831 4.52783V11ZM93.9715 6.37549H92.4246V4.83398H93.9715V6.37549ZM100.894 3.30859L101.925 4.71582V11H100.394V7.92236H98.8635V11H97.3327V4.53857L96.4143 3.30859H100.894ZM98.8635 6.38623H100.394V4.84473H98.8635V6.38623ZM108.385 5.54834H106.838V4.83398H105.292V5.54834H105.286V6.37549H105.292H106.838H108.385V7.91699V9.5874L107.279 11H103.75V8.75488H105.292V9.4585H106.838V7.91699H105.286H103.75V4.52783L102.821 3.29248H107.343L108.385 4.70508V5.54834ZM111.312 11H113.739L114.846 9.5874V4.70508L113.804 3.29248H113.299V9.4585H111.752V6.68701V3.29248H109.281L110.21 4.52783L110.205 9.5874L111.312 11Z" fill="white"/>
</g>
<defs>
<filter id="filter0_di" x="57.4344" y="70.7493" width="42.07" height="41.1046" filterUnits="userSpaceOnUse" color-interpolation-filters="sRGB">
<feFlood flood-opacity="0" result="BackgroundImageFix"/>
<feColorMatrix in="SourceAlpha" type="matrix" values="0 0 0 0 0 0 0 0 0 0 0 0 0 0 0 0 0 0 127 0"/>
<feOffset dy="4"/>
<feGaussianBlur stdDeviation="2"/>
<feColorMatrix type="matrix" values="0 0 0 0 0 0 0 0 0 0 0 0 0 0 0 0 0 0 0.79 0"/>
<feBlend mode="normal" in2="BackgroundImageFix" result="effect1_dropShadow"/>
<feBlend mode="normal" in="SourceGraphic" in2="effect1_dropShadow" result="shape"/>
<feColorMatrix in="SourceAlpha" type="matrix" values="0 0 0 0 0 0 0 0 0 0 0 0 0 0 0 0 0 0 127 0" result="hardAlpha"/>
<feOffset dy="4"/>
<feGaussianBlur stdDeviation="2"/>
<feComposite in2="hardAlpha" operator="arithmetic" k2="-1" k3="1"/>
<feColorMatrix type="matrix" values="0 0 0 0 0 0 0 0 0 0 0 0 0 0 0 0 0 0 0.25 0"/>
<feBlend mode="normal" in2="shape" result="effect2_innerShadow"/>
</filter>
<filter id="filter1_di" x="98.4106" y="72.1447" width="40.0711" height="41.0365" filterUnits="userSpaceOnUse" color-interpolation-filters="sRGB">
<feFlood flood-opacity="0" result="BackgroundImageFix"/>
<feColorMatrix in="SourceAlpha" type="matrix" values="0 0 0 0 0 0 0 0 0 0 0 0 0 0 0 0 0 0 127 0"/>
<feOffset dy="4"/>
<feGaussianBlur stdDeviation="2"/>
<feColorMatrix type="matrix" values="0 0 0 0 0 0 0 0 0 0 0 0 0 0 0 0 0 0 0.7 0"/>
<feBlend mode="normal" in2="BackgroundImageFix" result="effect1_dropShadow"/>
<feBlend mode="normal" in="SourceGraphic" in2="effect1_dropShadow" result="shape"/>
<feColorMatrix in="SourceAlpha" type="matrix" values="0 0 0 0 0 0 0 0 0 0 0 0 0 0 0 0 0 0 127 0" result="hardAlpha"/>
<feOffset dy="4"/>
<feGaussianBlur stdDeviation="2"/>
<feComposite in2="hardAlpha" operator="arithmetic" k2="-1" k3="1"/>
<feColorMatrix type="matrix" values="0 0 0 0 0 0 0 0 0 0 0 0 0 0 0 0 0 0 0.25 0"/>
<feBlend mode="normal" in2="shape" result="effect2_innerShadow"/>
</filter>
<filter id="filter2_d" x="47.187" y="56.226" width="104.02" height="57.8298" filterUnits="userSpaceOnUse" color-interpolation-filters="sRGB">
<feFlood flood-opacity="0" result="BackgroundImageFix"/>
<feColorMatrix in="SourceAlpha" type="matrix" values="0 0 0 0 0 0 0 0 0 0 0 0 0 0 0 0 0 0 127 0"/>
<feOffset dy="4"/>
<feGaussianBlur stdDeviation="5"/>
<feColorMatrix type="matrix" values="0 0 0 0 0 0 0 0 0 0 0 0 0 0 0 0 0 0 0.25 0"/>
<feBlend mode="normal" in2="BackgroundImageFix" result="effect1_dropShadow"/>
<feBlend mode="normal" in="SourceGraphic" in2="effect1_dropShadow" result="shape"/>
</filter>
</defs>
</svg>
